# xmcd
#
# Track frame offsets:
#	225
#	18736
#	34936
#	53876
#	69011
#	84252
#	104274
#	118962
#	129760
#	148120
#
# Disc length: 2182 seconds
#
# Revision: 1
# Processed by: cddbd v1.5.1PL2 Copyright (c) Steve Scherf et al.
# Submitted via: audiograbber 1.83.01
#
DISCID=8408830a
DTITLE=Wayne Toups - The New Blues Sessions
DYEAR=1997
DGENRE=Other
TTITLE0=Love Me As Hard As You Hurt Me
TTITLE1=Man On a Mission
TTITLE2=That's What I Love About My Baby
TTITLE3=Come On In (Make Yourself At Home)
TTITLE4=I Need All the Help I Can Get
TTITLE5=Take My Hand
TTITLE6=Somebody to Love
TTITLE7=Mine, Mine, Mine
TTITLE8=If this Ain't the Real Thing
TTITLE9=Livin' On Love
EXTD=
EXTT0=
EXTT1=
EXTT2=
EXTT3=
EXTT4=
EXTT5=
EXTT6=
EXTT7=
EXTT8=
EXTT9=
PLAYORDER=
